<?xml version="1.0" encoding="UTF-8" standalone="no"?>
<!-- Generator: Adobe Illustrator 18.1.1, SVG Export Plug-In . SVG Version: 6.00 Build 0)  -->

<svg
   version="1.1"
   id="Capa_1"
   x="0px"
   y="0px"
   viewBox="0 0 29.94 29.94"
   style="enable-background:new 0 0 29.94 29.94;"
   xml:space="preserve"
   sodipodi:docname="facebook.svg"
   inkscape:version="1.1.2 (b8e25be833, 2022-02-05)"
   xmlns:inkscape="http://www.inkscape.org/namespaces/inkscape"
   xmlns:sodipodi="http://sodipodi.sourceforge.net/DTD/sodipodi-0.dtd"
   xmlns="http://www.w3.org/2000/svg"
   xmlns:svg="http://www.w3.org/2000/svg"><defs
   id="defs69" /><sodipodi:namedview
   id="namedview67"
   pagecolor="#ffffff"
   bordercolor="#cccccc"
   borderopacity="1"
   inkscape:pageshadow="0"
   inkscape:pageopacity="1"
   inkscape:pagecheckerboard="0"
   showgrid="false"
   inkscape:zoom="18.136272"
   inkscape:cx="15.990056"
   inkscape:cy="15.383536"
   inkscape:window-width="1366"
   inkscape:window-height="705"
   inkscape:window-x="-8"
   inkscape:window-y="-8"
   inkscape:window-maximized="1"
   inkscape:current-layer="Capa_1" />

<g
   id="g36">
</g>
<g
   id="g38">
</g>
<g
   id="g40">
</g>
<g
   id="g42">
</g>
<g
   id="g44">
</g>
<g
   id="g46">
</g>
<g
   id="g48">
</g>
<g
   id="g50">
</g>
<g
   id="g52">
</g>
<g
   id="g54">
</g>
<g
   id="g56">
</g>
<g
   id="g58">
</g>
<g
   id="g60">
</g>
<g
   id="g62">
</g>
<g
   id="g64">
</g>
<rect
   style="fill:#000000;fill-opacity:0.986737"
   id="rect1462"
   width="29.333481"
   height="28.175581"
   x="0.55138123"
   y="1.378453" /><path
   style="fill:#ffffff;fill-opacity:0.986737;stroke-width:0.0752368"
   d="M 9.3863447,20.90946 V 14.24961 H 8.1003597 6.8143745 v -1.982988 -1.982989 h 1.2768352 1.276835 l 0.03607,-1.6275485 c 0.04169,-1.881321 0.136892,-2.4152773 0.6027213,-3.3802736 0.557512,-1.1549403 1.678873,-2.0630164 3.048353,-2.4685529 1.322574,-0.3916465 3.494562,-0.5003723 4.76571,-0.2385623 0.581291,0.119725 2.751142,0.7303767 2.823047,0.7944779 0.02415,0.021521 -0.900508,3.5629542 -0.945576,3.621577 C 19.6852,7.0018246 19.393607,6.878715 19.050287,6.7111745 18.140793,6.2673416 17.946021,6.2224455 17.075956,6.2560804 16.451043,6.2802384 16.229192,6.3218014 15.885072,6.479183 15.10614,6.8354272 14.921013,7.3004706 14.855089,9.0665182 l -0.04534,1.2148528 2.226694,0.01984 2.226694,0.01984 -0.460916,1.945574 -0.460916,1.945574 -1.754212,0.02008 -1.75421,0.02009 v 6.658471 6.658471 H 12.109619 9.3863567 Z"
   id="path923" /></svg>
