<?xml version="1.0" encoding="UTF-8" standalone="no"?>
<svg
   width="16px"
   height="16px"
   viewBox="0 0 16 16"
   version="1.1"
   id="svg5"
   sodipodi:docname="insta.svg"
   inkscape:version="1.1.2 (b8e25be833, 2022-02-05)"
   xmlns:inkscape="http://www.inkscape.org/namespaces/inkscape"
   xmlns:sodipodi="http://sodipodi.sourceforge.net/DTD/sodipodi-0.dtd"
   xmlns="http://www.w3.org/2000/svg"
   xmlns:svg="http://www.w3.org/2000/svg">
  <defs
     id="defs9" />
  <sodipodi:namedview
     id="namedview7"
     pagecolor="#ffffff"
     bordercolor="#cccccc"
     borderopacity="1"
     inkscape:pageshadow="0"
     inkscape:pageopacity="1"
     inkscape:pagecheckerboard="0"
     showgrid="false"
     inkscape:zoom="33.9375"
     inkscape:cx="7.985267"
     inkscape:cy="7.8968692"
     inkscape:window-width="1366"
     inkscape:window-height="705"
     inkscape:window-x="-8"
     inkscape:window-y="-8"
     inkscape:window-maximized="1"
     inkscape:current-layer="svg5" />
  <rect
     width="16"
     height="16"
     id="icon-bound"
     fill="none" />
  <path
     d="M8,4C5.791,4,4,5.791,4,8s1.791,4,4,4s4-1.791,4-4S10.209,4,8,4z M8,10c-1.103,0-2-0.897-2-2s0.897-2,2-2s2,0.897,2,2 S9.103,10,8,10z M11,0H5C2.237,0,0,2.237,0,5v6c0,2.762,2.237,5,5,5h6c2.762,0,5-2.238,5-5V5C16,2.237,13.762,0,11,0z M14,11 c0,1.653-1.347,3-3,3H5c-1.653,0-3-1.347-3-3V5c0-1.653,1.347-3,3-3h6c1.653,0,3,1.347,3,3V11z M12,3c-0.553,0-1,0.447-1,1 s0.447,1,1,1s1-0.447,1-1S12.553,3,12,3z"
     id="path3" />
  <path
     style="fill:#ffffff;fill-opacity:0.986737;stroke-width:0.0294659"
     d="M 4.550111,13.952224 C 3.3654494,13.748081 2.4378945,12.910502 2.1143277,11.752719 L 2.0331492,11.462247 V 8 4.5377532 L 2.1143277,4.247281 C 2.4089649,3.1930132 3.1930132,2.4089649 4.247281,2.1143277 L 4.5377532,2.0331492 H 8 11.462247 l 0.279926,0.078648 c 1.071266,0.3009833 1.846715,1.0735331 2.143499,2.1354836 l 0.08118,0.2904722 V 8 11.462247 l -0.07995,0.285847 c -0.294139,1.051676 -1.064357,1.828344 -2.118842,2.136585 l -0.276348,0.08078 -3.4033152,0.005 c -1.8718232,0.0028 -3.4640523,-0.0055 -3.5382868,-0.01825 z m 4.2602021,-2.016465 c 0.8165021,-0.182058 1.4313639,-0.518925 2.0194029,-1.106381 0.591393,-0.590806 0.932919,-1.2190979 1.110984,-2.0438369 0.07314,-0.3387398 0.07314,-1.2323424 0,-1.5710822 C 11.773006,6.4377565 11.434326,5.7913797 10.904343,5.2365495 10.324268,4.6292808 9.6243842,4.2404105 8.7855411,4.0592996 8.4409547,3.9849015 7.5530961,3.9866566 7.2059692,4.0624222 6.3782933,4.2430744 5.7622076,4.5783613 5.1702845,5.1702845 4.578684,5.7618846 4.2373011,6.3900178 4.0592996,7.2144589 c -0.073136,0.3387398 -0.073136,1.2323424 0,1.5710822 0.1674728,0.7756761 0.5064524,1.4231599 1.0344672,1.9759319 0.6360427,0.665865 1.4142612,1.071271 2.3322678,1.214974 0.2569709,0.04022 1.1374636,0.01435 1.3842785,-0.04069 z M 12.426794,4.9149913 c 0.19798,-0.08844 0.40945,-0.299905 0.503445,-0.5034339 0.05168,-0.1119032 0.0642,-0.1935628 0.06421,-0.4189239 2.1e-5,-0.262627 -0.0062,-0.2913716 -0.100401,-0.4651261 -0.113805,-0.2098806 -0.231139,-0.3240329 -0.453151,-0.4408645 -0.136147,-0.071646 -0.185429,-0.080848 -0.433535,-0.080954 -0.333651,-1.414e-4 -0.478859,0.054312 -0.7024,0.263408 -0.403538,0.3774626 -0.420711,1.0339523 -0.03734,1.4275416 0.15778,0.1619873 0.25765,0.2207328 0.481332,0.2831303 0.203747,0.056837 0.460528,0.032298 0.677839,-0.064777 z"
     id="path863" />
  <path
     style="fill:#000000;fill-opacity:0.986737;stroke-width:0.0294659"
     d="M 7.5285451,9.9279266 C 7.2894858,9.865364 6.9170636,9.6728032 6.7370932,9.5187064 6.5071123,9.3217895 6.3621812,9.1358494 6.2308697,8.8692449 6.0767409,8.5563139 6.0257827,8.3403318 6.0257827,8 c 0,-0.3403318 0.050958,-0.5563139 0.205087,-0.8692449 C 6.4342608,6.717806 6.7172295,6.434875 7.1307551,6.2309897 7.4435407,6.0767733 7.6595339,6.0257827 8,6.0257827 c 0.3403318,0 0.5563139,0.050958 0.8692449,0.205087 C 9.282194,6.4342608 9.565125,6.7172295 9.7690104,7.1307551 9.9232268,7.4435407 9.9742173,7.6595339 9.9742173,8 c 0,0.3404661 -0.05099,0.5564593 -0.2052069,0.8692449 C 9.5107878,9.3929786 9.0705671,9.7554478 8.5010317,9.9132741 8.2380081,9.9861616 7.7775768,9.9930991 7.5285451,9.9279266 Z"
     id="path1093" />
  <path
     style="fill:#000000;fill-opacity:0.986737;stroke-width:0.0294659"
     d="M 4.550111,13.951809 C 3.2592439,13.733334 2.2520834,12.724781 2.0492732,11.447514 c -0.041642,-0.262254 -0.041642,-6.6327736 0,-6.8950278 0.20418,-1.2858938 1.2326793,-2.3089565 2.517946,-2.5046363 0.1395199,-0.021242 1.2931954,-0.028567 3.5653775,-0.022637 l 3.3591163,0.00877 0.235727,0.068023 c 0.564874,0.1630028 0.975199,0.4018498 1.371954,0.7986047 0.403417,0.403417 0.645517,0.8235159 0.799137,1.3866868 l 0.06832,0.2504604 V 8 11.462247 l -0.08118,0.290472 c -0.319052,1.141632 -1.237752,1.986853 -2.37572,2.18571 -0.207793,0.03631 -0.768493,0.04261 -3.5359112,0.03969 -1.808927,-0.0019 -3.3496953,-0.01375 -3.4239288,-0.02631 z M 8.7955801,11.935916 C 9.6063072,11.760704 10.250272,11.410939 10.830605,10.830605 11.407561,10.25365 11.760703,9.6028983 11.938655,8.7887493 12.014,8.444041 12.014,7.555959 11.938655,7.2112507 11.726757,6.2417939 11.216596,5.420942 10.460405,4.8327393 9.6848934,4.2295072 8.8216144,3.9587981 7.8116149,4.0021252 6.7771698,4.0465011 5.9085554,4.4302341 5.1693946,5.1693946 4.5969487,5.7418407 4.239267,6.3957834 4.0643721,7.1896869 3.9943682,7.5074566 3.9776482,8.2488442 4.032426,8.6062141 c 0.1298978,0.847451 0.5166193,1.6040419 1.1369686,2.2243909 0.5960198,0.59602 1.3518798,0.993711 2.1234231,1.117227 0.1215469,0.01946 0.240884,0.04016 0.2651933,0.046 0.1185017,0.02848 1.0365923,-0.01448 1.2375691,-0.05792 z M 12.410317,4.9216477 c 0.207906,-0.094378 0.404526,-0.2833022 0.502524,-0.4828556 0.07181,-0.1462223 0.08163,-0.199928 0.08163,-0.4461586 0,-0.2626066 -0.0062,-0.2913851 -0.100423,-0.4651261 -0.113805,-0.2098806 -0.231139,-0.3240329 -0.453151,-0.4408645 -0.136147,-0.071646 -0.185429,-0.080848 -0.433535,-0.080954 -0.333651,-1.414e-4 -0.478859,0.054312 -0.7024,0.263408 -0.403538,0.3774626 -0.420711,1.0339523 -0.03734,1.4275416 0.15778,0.1619873 0.25765,0.2207328 0.481332,0.2831303 0.199966,0.055782 0.460975,0.032844 0.661362,-0.058121 z"
     id="path1169" />
  <path
     style="fill:#ffffff;fill-opacity:0.986737;stroke-width:0.0294659"
     d="M 4.5672192,15.966757 C 3.2544743,15.806155 2.2519245,15.322535 1.4067424,14.442174 0.69539716,13.70122 0.24914105,12.801619 0.06738023,11.742173 c -0.05511595,-0.321259 -0.05511595,-7.1630867 0,-7.4843461 C 0.20975523,3.4279529 0.52257355,2.6792803 0.99463726,2.0386094 1.2178775,1.7356344 1.7285417,1.2230942 2.0184162,1.0110696 2.6942191,0.51676305 3.4191947,0.21125782 4.2578269,0.06738023 c 0.3212594,-0.05511595 7.1630871,-0.05511595 7.4843461,0 1.057564,0.18143804 1.959865,0.62880216 2.698511,1.33793257 0.801567,0.7695356 1.282764,1.6905322 1.490367,2.8525141 0.03155,0.1765758 0.03948,0.9287331 0.03948,3.7421731 0,2.81344 -0.0079,3.565597 -0.03948,3.742173 -0.206933,1.158233 -0.690902,2.084997 -1.488877,2.851085 -0.719353,0.690607 -1.519115,1.09662 -2.611603,1.325823 -0.192818,0.04045 -0.664307,0.04714 -3.6979743,0.05243 -1.9123389,0.0033 -3.5167588,0.0012 -3.5653775,-0.0048 z m 6.9427328,-1.998956 c 1.258285,-0.220366 2.237483,-1.199564 2.457849,-2.457849 0.06438,-0.367599 0.06438,-6.6523051 0,-7.0199044 C 13.857892,3.8624681 13.576094,3.318979 13.128557,2.8714427 12.681021,2.4239063 12.137532,2.1421084 11.509952,2.0321996 c -0.367599,-0.064378 -6.6523051,-0.064378 -7.0199044,0 C 3.8624681,2.1421084 3.318979,2.4239063 2.8714427,2.8714427 2.4239063,3.318979 2.1421084,3.8624681 2.0321996,4.4900476 c -0.064378,0.3675993 -0.064378,6.6523054 0,7.0199044 0.2200604,1.256545 1.1871029,2.229818 2.4417345,2.457467 0.331353,0.06012 6.6929259,0.06047 7.0360179,3.82e-4 z"
     id="path1208" />
  <path
     style="fill:#ffffff;fill-opacity:0.986737;stroke-width:0.0294659"
     d="M 7.3664825,11.934003 C 5.6353661,11.627323 4.3474422,10.32377 4.0622461,8.589669 3.9646476,7.9962328 4.0475435,7.1953462 4.266881,6.6126202 4.702105,5.4563364 5.7034142,4.520777 6.8652113,4.1849063 7.6970599,3.9444223 8.6094718,3.9740772 9.3873797,4.266881 11.782345,5.1683432 12.724907,8.055017 11.320682,10.187777 10.75763,11.04295 9.9306287,11.620903 8.9008062,11.878916 8.5252709,11.973003 7.7448003,12.001024 7.3664825,11.934003 Z M 8.5124278,9.9455764 C 8.8709327,9.8538864 9.1268888,9.7035132 9.4152009,9.4152009 9.8253657,9.0050363 10.003683,8.5762127 10.003683,8 10.003683,7.4237873 9.8253657,6.9949637 9.4152009,6.584799 9.0050363,6.1746342 8.5762127,5.9963168 8,5.9963168 7.4237873,5.9963168 6.9949637,6.1746342 6.584799,6.584799 6.1746342,6.9949637 5.9963168,7.4237873 5.9963168,8 c 0,0.5762127 0.1783174,1.0050363 0.5884822,1.4152009 0.2844908,0.2844909 0.542513,0.4376545 0.8911651,0.5290009 0.2952533,0.077356 0.7370875,0.077942 1.0364637,0.00137 z"
     id="path1284" />
  <path
     style="fill:#ffffff;fill-opacity:0.986737;stroke-width:0.0294659"
     d="M 11.769557,4.9541844 C 11.376294,4.8481492 11.077918,4.5111368 11.019651,4.1071735 c -0.03964,-0.2748063 0.139867,-0.7066406 0.362004,-0.8708734 0.220991,-0.1633863 0.334899,-0.200878 0.610979,-0.201098 0.230382,-1.836e-4 0.287013,0.010505 0.431425,0.081423 0.09143,0.044899 0.221891,0.1420171 0.289919,0.2158182 0.5082,0.5513321 0.245172,1.4292116 -0.484441,1.6168634 -0.206261,0.053049 -0.278482,0.053815 -0.45998,0.00488 z"
     id="path1323" />
</svg>
