<?xml version="1.0" encoding="UTF-8" standalone="no"?>
<!-- Generator: Adobe Illustrator 19.0.0, SVG Export Plug-In . SVG Version: 6.00 Build 0)  -->

<svg
   version="1.1"
   id="Layer_1"
   x="0px"
   y="0px"
   viewBox="0 0 455 455"
   style="enable-background:new 0 0 455 455;"
   xml:space="preserve"
   sodipodi:docname="telegram.svg"
   inkscape:version="1.1.2 (b8e25be833, 2022-02-05)"
   xmlns:inkscape="http://www.inkscape.org/namespaces/inkscape"
   xmlns:sodipodi="http://sodipodi.sourceforge.net/DTD/sodipodi-0.dtd"
   xmlns="http://www.w3.org/2000/svg"
   xmlns:svg="http://www.w3.org/2000/svg"><defs
   id="defs41" /><sodipodi:namedview
   id="namedview39"
   pagecolor="#ffffff"
   bordercolor="#cccccc"
   borderopacity="1"
   inkscape:pageshadow="0"
   inkscape:pageopacity="1"
   inkscape:pagecheckerboard="0"
   showgrid="false"
   inkscape:zoom="1.1934066"
   inkscape:cx="227.08103"
   inkscape:cy="226.24309"
   inkscape:window-width="1366"
   inkscape:window-height="705"
   inkscape:window-x="-8"
   inkscape:window-y="-8"
   inkscape:window-maximized="1"
   inkscape:current-layer="Layer_1" />

<g
   id="g8">
</g>
<g
   id="g10">
</g>
<g
   id="g12">
</g>
<g
   id="g14">
</g>
<g
   id="g16">
</g>
<g
   id="g18">
</g>
<g
   id="g20">
</g>
<g
   id="g22">
</g>
<g
   id="g24">
</g>
<g
   id="g26">
</g>
<g
   id="g28">
</g>
<g
   id="g30">
</g>
<g
   id="g32">
</g>
<g
   id="g34">
</g>
<g
   id="g36">
</g>
<path
   style="fill:#ffffff;fill-opacity:0.986737;stroke-width:0.837937"
   d="m 319.25781,363.06355 c -0.91972,-0.5331 -16.76548,-11.94536 -35.2128,-25.36058 -18.44732,-13.41523 -35.28019,-25.5882 -37.40638,-27.05106 -4.82276,-3.31815 -9.40986,-4.1573 -13.31665,-2.43612 -1.58906,0.70008 -12.66877,9.26071 -24.62159,19.02363 -21.47983,17.54446 -21.77096,17.74559 -25.05161,17.30556 -1.82556,-0.24486 -4.00435,-1.13354 -4.84174,-1.97483 -0.91034,-0.91458 -7.2913,-20.06075 -15.86934,-47.61619 -7.89075,-25.34761 -14.43642,-46.17692 -14.54594,-46.28735 -0.10952,-0.11044 -16.72756,-6.36967 -36.92898,-13.90938 -22.760572,-8.49486 -37.47667,-14.42735 -38.693466,-15.59848 -2.644302,-2.54505 -2.681721,-7.52682 -0.07825,-10.41711 1.425504,-1.58254 38.504516,-16.20712 152.020016,-59.95925 82.57407,-31.8264 151.13588,-57.866184 152.35959,-57.866184 3.26901,0 7.12362,4.175067 7.12362,7.715849 0,1.549425 -12.06161,60.872975 -26.80359,131.830115 -26.68099,128.42288 -26.81518,129.02351 -29.34102,131.3173 -2.70198,2.45374 -5.95443,2.92878 -8.79187,1.28408 z M 187.71743,306.23462 c 0.22677,-0.36691 1.48581,-8.34437 2.79787,-17.72766 1.47106,-10.52048 3.02225,-18.4999 4.04646,-20.81531 1.88527,-4.26196 3.38733,-5.70916 74.83511,-72.10208 25.57804,-23.76842 47.04927,-43.87747 47.71384,-44.68677 1.49228,-1.81726 0.2149,-4.28738 -2.1808,-4.21707 -1.68504,0.0495 -142.58201,86.42128 -145.98404,89.49027 -2.59047,2.33689 -4.29117,6.40996 -4.29117,10.27709 0,1.69736 3.64104,15.88359 8.0912,31.52495 6.77958,23.82875 8.37057,28.5422 9.81451,29.07635 1.85122,0.6848 4.486,0.26598 5.15702,-0.81977 z"
   id="path895" /><rect
   style="fill:#000000;fill-opacity:0.986737"
   id="rect1321"
   width="457.51382"
   height="444.10681"
   x="0"
   y="1.6758748" /><path
   style="fill:#ffffff;fill-opacity:0.986737;stroke-width:1.02651"
   d="m 344.33807,395.71249 c -1.07531,-0.64601 -21.82825,-16.10088 -46.11765,-34.34411 -24.2894,-18.24324 -45.80802,-33.73183 -47.81921,-34.41907 -4.67374,-1.59705 -8.92504,-0.69673 -13.47996,2.85474 -1.98831,1.55029 -14.48389,11.93688 -27.76799,23.08132 -23.78283,19.9522 -24.21403,20.25416 -28.1426,19.70858 -2.19433,-0.30475 -4.8137,-1.41211 -5.82079,-2.4608 -1.0923,-1.13745 -8.82833,-25.16239 -19.1742,-59.54736 L 138.67254,252.94517 94.364424,235.90292 C 64.740333,224.50858 49.245388,218.0346 47.609428,216.36807 c -3.259762,-3.32067 -3.34244,-9.41795 -0.177044,-13.05644 1.716197,-1.97268 46.356498,-20.20269 183.020536,-74.74112 99.41289,-39.672619 181.9561,-72.132044 183.42935,-72.132044 3.96156,0 8.5763,5.203512 8.5763,9.670527 0,1.96027 -14.52048,75.908967 -32.26773,164.330457 -32.12645,160.06243 -32.2811,160.77888 -35.32437,163.63872 -3.23657,3.04151 -7.1698,3.65205 -10.5284,1.63432 z m -158.4227,-70.87275 c 0.27302,-0.45736 1.78881,-10.40151 3.36842,-22.09808 1.80214,-13.34423 3.63159,-23.04441 4.91101,-26.03908 2.23595,-5.23366 2.1773,-5.17528 95.60487,-95.14318 32.86184,-31.64495 52.45828,-51.23906 52.45828,-52.45208 0,-1.065 -0.73347,-2.41539 -1.62992,-3.00088 -1.2818,-0.83715 -5.26779,1.24163 -18.66304,9.73321 -23.68794,15.01639 -149.27082,95.10138 -154.37545,98.44619 -2.29848,1.50609 -5.24924,4.29193 -6.55728,6.19075 -4.23383,6.14614 -3.44496,11.95641 6.54869,48.23372 9.73506,35.3387 10.27853,36.94875 12.65088,37.47985 2.03784,0.45624 5.02943,-0.25456 5.68354,-1.35042 z"
   id="path993" /></svg>
