<?xml version="1.0" encoding="UTF-8" standalone="no"?>
<!-- Generator: Adobe Illustrator 19.0.0, SVG Export Plug-In . SVG Version: 6.00 Build 0)  -->

<svg
   version="1.1"
   id="Layer_1"
   x="0px"
   y="0px"
   viewBox="0 0 512 512"
   style="enable-background:new 0 0 512 512;"
   xml:space="preserve"
   sodipodi:docname="twitter.svg"
   inkscape:version="1.1.2 (b8e25be833, 2022-02-05)"
   xmlns:inkscape="http://www.inkscape.org/namespaces/inkscape"
   xmlns:sodipodi="http://sodipodi.sourceforge.net/DTD/sodipodi-0.dtd"
   xmlns="http://www.w3.org/2000/svg"
   xmlns:svg="http://www.w3.org/2000/svg"><defs
   id="defs41" /><sodipodi:namedview
   id="namedview39"
   pagecolor="#ffffff"
   bordercolor="#cccccc"
   borderopacity="1"
   inkscape:pageshadow="0"
   inkscape:pageopacity="1"
   inkscape:pagecheckerboard="0"
   showgrid="false"
   inkscape:zoom="1.0605469"
   inkscape:cx="255.52855"
   inkscape:cy="252.69982"
   inkscape:window-width="1366"
   inkscape:window-height="705"
   inkscape:window-x="-8"
   inkscape:window-y="-8"
   inkscape:window-maximized="1"
   inkscape:current-layer="Layer_1" />
<g
   id="g6">
	<g
   id="g4">
		<path
   d="M507.413,93.394c-3.709-2.51-8.607-2.383-12.174,0.327c-3.612,2.735-9.474,5.087-16.138,7.016    c18.245-21.301,18.623-35.541,18.408-38.893c-0.245-3.801-2.541-7.168-5.985-8.791c-3.459-1.612-7.51-1.23-10.587,1.005    c-21.893,15.908-43.689,19.373-56.791,19.76c-20.337-19.342-46.704-29.944-74.74-29.944c-60.271,0-109.307,49.684-109.307,110.751    c0,4.944,0.327,9.878,0.969,14.771C138.176,167.645,54.665,69.155,53.803,68.119c-2.184-2.617-5.5-4.041-8.929-3.714    c-3.398,0.296-6.444,2.235-8.148,5.189c-29.005,50.322-11.286,94.725,6.505,121.327c-1.837-1.092-3.342-2.097-4.372-2.857    c-3.143-2.337-7.337-2.725-10.852-0.995c-3.521,1.735-5.771,5.286-5.837,9.209c-0.786,48.255,21.764,76.49,43.674,92.49    c-2.372,0.327-4.597,1.459-6.266,3.276c-2.51,2.724-3.393,6.576-2.311,10.122c15.194,49.735,52.041,67.352,76.373,73.587    c-49.22,37.138-120.557,25.016-121.348,24.867c-4.73-0.831-9.464,1.663-11.408,6.082c-1.939,4.413-0.612,9.587,3.225,12.51    c52.464,40.041,115.21,48.913,160.53,48.913c34.272,0,58.573-5.077,60.91-5.582c228.617-54.179,235.864-263.063,235.394-298.66    c42.888-39.929,49.633-55.255,50.684-59.067C512.811,100.502,511.117,95.91,507.413,93.394z M443.283,151.752    c-2.33,2.143-3.56,5.235-3.346,8.398c0.036,0.561,3.536,57.179-21.694,120.266c-33.709,84.291-100.164,138.725-197.307,161.746    c-1.041,0.219-90.905,18.831-169.792-18.689c33.725-1.414,80.429-10.913,113.292-47.806c2.745-3.077,3.398-7.833,1.709-11.593    c-1.689-3.75-5.439-6.51-9.551-6.51c-0.02,0-0.041,0-0.071,0c-2.76,0-50.337-0.357-73.133-46.306    c9.219,0.398,20.24-0.145,29.122-4.237c4.092-1.888,6.51-6.1,6.005-10.574c-0.505-4.475-3.821-8.079-8.23-9.008    c-2.556-0.541-57.649-12.836-66.143-72.693c8.464,3.526,19.015,6.257,29.51,4.685c4.031-0.602,7.332-3.5,8.474-7.413    c1.138-3.908-0.107-8.13-3.184-10.809c-2.383-2.07-54.327-48.273-30.541-107.973c28.158,29.332,108.46,102.368,205.833,96.786    c3.107-0.179,5.975-1.74,7.82-4.25c1.843-2.51,2.471-5.709,1.71-8.728c-1.837-7.316-2.77-14.857-2.77-22.418    c0-49.546,39.658-89.853,88.409-89.853c23.842,0,46.203,9.515,62.97,26.796c1.923,1.985,4.556,3.122,7.322,3.174    c9.658,0.092,25.561-0.949,43.531-7.633c-5.359,6.275-12.852,13.622-23.332,21.852c-3.622,2.847-4.954,7.735-3.276,12.026    c1.684,4.301,6.056,7.02,10.566,6.607c2.112-0.168,12.352-1.071,24.352-3.505C464.662,131.4,455.494,140.523,443.283,151.752z"
   id="path2" />
	</g>
</g>
<g
   id="g8">
</g>
<g
   id="g10">
</g>
<g
   id="g12">
</g>
<g
   id="g14">
</g>
<g
   id="g16">
</g>
<g
   id="g18">
</g>
<g
   id="g20">
</g>
<g
   id="g22">
</g>
<g
   id="g24">
</g>
<g
   id="g26">
</g>
<g
   id="g28">
</g>
<g
   id="g30">
</g>
<g
   id="g32">
</g>
<g
   id="g34">
</g>
<g
   id="g36">
</g>
<path
   style="fill:#ffffff;fill-opacity:0.986737;stroke-width:0.94291"
   d="m 138.13628,445.37712 c -26.9522,-2.25632 -58.26998,-9.85173 -80.14733,-19.4379 l -4.243094,-1.85923 6.600369,-0.66671 c 42.878165,-4.33118 73.858535,-17.3094 97.826885,-40.98138 8.81222,-8.70324 9.19337,-9.24874 9.19337,-13.15727 0,-7.58909 -5.04247,-12.38329 -13.02456,-12.38329 -2.08006,0 -6.89549,-0.60069 -10.70096,-1.33486 -23.40215,-4.51489 -44.262377,-18.55287 -55.740243,-37.51063 l -3.597984,-5.94272 8.765761,-0.54858 c 10.854486,-0.6793 18.716696,-2.92362 22.695326,-6.47853 2.57656,-2.30215 3.04281,-3.37019 3.04281,-6.97005 0,-6.79523 -2.26469,-8.92032 -13.74228,-12.89522 C 93.895406,281.34276 89.146999,279.04279 81.090239,273.59852 70.360808,266.34824 60.668091,255.84639 54.404473,244.68508 51.3992,239.32991 46.390646,225.17904 45.323898,219.02937 l -0.606663,-3.49734 5.457221,1.97327 c 4.203848,1.52007 7.874542,1.99847 15.982308,2.08298 9.939412,0.10359 10.662009,-0.0186 12.98567,-2.19563 1.35332,-1.26792 2.790136,-3.5771 3.192924,-5.13152 1.433414,-5.53172 0.249403,-7.96335 -8.315038,-17.07678 C 57.342321,177.43727 47.047463,157.892 43.81129,137.83108 41.826323,125.52635 43.439537,108.05861 47.557627,97.266061 l 1.023508,-2.682374 10.081734,9.625603 c 39.214509,37.44033 82.437361,64.12696 125.204531,77.3037 27.66601,8.52401 68.49736,12.25137 75.69023,6.90952 5.15421,-3.82784 5.51339,-5.55353 3.57476,-17.17502 -3.38835,-20.31204 -0.80498,-38.69385 7.90006,-56.2125 8.96205,-18.035878 22.78392,-31.998302 40.12526,-40.533309 11.91999,-5.866737 20.49252,-8.080322 33.71121,-8.704855 25.04996,-1.183516 45.01299,6.126387 64.62529,23.663967 l 5.92882,5.301638 h 8.79849 c 8.99801,0 21.89583,-1.829389 30.1964,-4.282968 8.51763,-2.517744 8.37699,-2.29149 -7.12018,11.454977 -8.98239,7.96765 -11.09284,10.33737 -11.59627,13.02086 -0.74981,3.99687 1.18988,9.10968 4.27613,11.27138 2.69011,1.88422 10.45932,1.9526 21.10527,0.18575 4.14881,-0.68855 7.70262,-1.10783 7.89737,-0.93174 0.19474,0.1761 -6.22907,6.80835 -14.27514,14.73834 l -14.62923,14.41817 -0.57809,17.42542 c -3.06031,92.24816 -40.84547,170.49709 -105.60552,218.69741 -33.09028,24.62879 -80.52729,45.17631 -119.85174,51.91422 -20.93479,3.587 -52.09081,4.69643 -75.90424,2.70287 z"
   id="path895" /><path
   style="fill:#ffffff;fill-opacity:0.986737;stroke-width:0.94291"
   d="M 138.13628,445.44517 C 110.52943,442.9443 79.258678,435.41084 58.93186,426.364 l -5.186004,-2.30813 6.600369,-0.64063 c 42.091845,-4.08541 75.291495,-18.15431 98.914455,-41.91664 6.92712,-6.96799 7.45378,-7.78125 7.8745,-12.15974 0.41461,-4.31498 0.19269,-4.97406 -2.75948,-8.19544 -3.07696,-3.35756 -3.56138,-3.53858 -11.66042,-4.3573 -27.96513,-2.82701 -51.63966,-16.97759 -64.81412,-38.74027 l -3.59754,-5.94272 8.825211,-0.58916 c 19.645699,-1.31152 28.251639,-7.06219 25.301969,-16.90731 -1.36044,-4.54075 -2.92973,-5.61577 -13.76782,-9.43135 -28.540958,-10.04794 -47.508795,-28.40955 -55.950631,-54.16242 -1.529984,-4.6674 -3.050371,-10.03645 -3.378638,-11.93121 l -0.59685,-3.44503 5.918862,1.88634 c 7.587782,2.41823 21.289452,3.34343 25.245684,1.7047 4.182371,-1.73239 6.603197,-5.25901 6.603197,-9.61942 0,-4.92114 -1.034711,-6.68531 -8.272135,-14.10393 C 58.348171,179.22238 47.025666,157.75688 43.81129,137.83108 41.824187,125.51311 43.439231,108.05968 47.567309,97.240596 l 1.03319,-2.707839 8.230138,7.910423 c 50.328933,48.3738 105.050443,78.10809 158.624243,86.1924 6.51735,0.98348 16.9257,1.67537 26.0887,1.73424 14.06931,0.0904 15.45119,-0.054 17.91529,-1.87266 5.04207,-3.72129 5.53374,-6.0982 3.62647,-17.53173 -2.08567,-12.50292 -1.57056,-27.84068 1.30839,-38.95806 2.61221,-10.08738 10.03635,-24.76436 17.01387,-33.635204 10.59373,-13.468285 28.36316,-25.253029 45.31063,-30.050163 9.06293,-2.565343 26.56707,-3.478117 36.37082,-1.896601 16.98597,2.74013 32.09791,10.24166 46.40516,23.035391 l 5.92882,5.301638 h 8.79849 c 8.99801,0 21.89583,-1.829389 30.1964,-4.282968 2.55748,-0.75597 5.07122,-1.374491 5.58609,-1.374491 1.40735,0 -2.57934,4.012709 -13.22863,13.314968 -10.74754,9.38807 -12.57892,12.51755 -10.68448,18.25777 2.35871,7.14695 7.53886,8.36207 24.52052,5.75182 4.4081,-0.67757 8.19103,-1.07925 8.4065,-0.89262 0.21547,0.18663 -6.21055,6.81055 -14.28006,14.71981 l -14.67183,14.38048 -0.57494,17.5057 c -1.83885,55.98908 -16.0106,105.79984 -42.48134,149.31306 -20.06593,32.98484 -50.81965,63.58114 -83.65984,83.23158 -33.16978,19.84766 -74.28218,34.82193 -108.26704,39.4338 -13.18695,1.78952 -53.09456,2.57867 -66.94659,1.32383 z"
   id="path971" /><path
   style="fill:#000000;fill-opacity:0.986737;stroke-width:0.94291"
   d="M 132.47882,466.18433 C 84.6215,460.91695 45.114613,447.12943 12.0227,424.14632 -0.33383456,415.5644 -2.4300474,410.52139 3.7785637,404.31278 l 3.3071087,-3.30711 9.6579006,0.8084 c 5.311845,0.44462 17.719779,0.76627 27.573186,0.71479 26.03216,-0.13604 46.266376,-4.02198 65.889241,-12.65388 7.75194,-3.41001 24.16473,-12.99872 24.15393,-14.11126 -0.003,-0.2671 -3.36973,-1.49385 -7.48252,-2.72612 -20.69037,-6.19921 -40.352168,-20.30633 -52.824213,-37.90078 -5.765629,-8.13363 -12.372571,-21.16345 -15.230186,-30.03606 -1.858276,-5.76975 -1.896367,-6.44464 -0.546142,-9.67618 0.95423,-2.28379 2.638411,-4.08278 4.916287,-5.25139 l 3.464828,-1.77756 -2.411106,-1.57982 C 59.60575,283.77482 49.577777,273.7522 44.447887,267.02739 30.677901,248.97619 23.101289,226.11481 23.101289,202.61697 c 0,-9.43811 0.0907,-9.86368 2.732236,-12.82008 3.406689,-3.81274 8.463485,-4.18541 12.996277,-0.95778 4.972425,3.54068 5.101848,2.40118 0.591454,-5.20743 -11.67768,-19.69916 -17.262877,-38.83526 -17.262877,-59.14638 0,-16.72794 3.97471,-33.09284 11.79938,-48.581064 4.085185,-8.086255 7.048802,-10.800603 11.792464,-10.800603 3.510412,0 4.498795,0.803179 20.926588,17.005339 23.479417,23.156928 40.426959,36.803588 64.049449,51.574498 34.37194,21.49242 69.00207,33.43974 104.05827,35.89987 l 6.60037,0.46319 -0.33451,-11.77832 c -0.56137,-19.76613 2.8425,-35.78771 11.18837,-52.66232 15.40719,-31.151962 44.94759,-53.62086 78.1389,-59.433698 11.17558,-1.957195 29.7027,-1.773047 40.18588,0.399423 17.19803,3.564016 33.92918,11.555147 47.3681,22.623951 l 6.16498,5.077701 6.70675,-0.568301 c 15.147,-1.283492 32.10509,-7.239306 45.75541,-16.069658 8.26932,-5.349397 10.32576,-5.900641 14.54443,-3.898752 4.40652,2.091036 6.65124,6.792937 5.77253,12.09145 -1.52228,9.179073 -9.41031,24.700902 -16.25649,31.989046 -1.33459,1.420742 -2.20884,2.800848 -1.94278,3.066898 0.79584,0.79585 11.3664,-3.175369 15.19339,-5.707955 1.95756,-1.295448 4.76342,-2.596205 6.23526,-2.890572 5.25096,-1.050193 11.42343,4.417215 11.42343,10.118577 0,6.34508 -13.16376,23.44529 -34.9046,45.34238 l -15.6267,15.73901 -1.13039,18.20574 c -4.9584,79.85922 -34.89803,150.47418 -85.07143,200.64758 -32.58707,32.58706 -75.29383,57.69237 -123.29177,72.47746 -31.47428,9.69521 -44.4107,11.57613 -82.25136,11.95918 -15.81731,0.16012 -32.36538,-0.10585 -36.77348,-0.59102 z m 73.07551,-21.16359 c 14.21675,-1.79327 31.46442,-6.06194 49.50276,-12.25158 59.54365,-20.43169 105.18047,-54.1393 136.63625,-100.92029 17.58513,-26.15258 30.60906,-55.60003 38.75903,-87.63524 6.18527,-24.31252 8.99401,-44.31509 9.99274,-71.16359 0.33812,-9.08986 0.93867,-17.13774 1.33455,-17.88417 0.39588,-0.74643 7.44691,-8.1029 15.66896,-16.34771 l 14.94917,-14.99054 -3.77164,0.50002 c -25.47606,3.37745 -26.72281,3.28601 -30.44796,-2.23327 -3.57204,-5.29245 -1.82991,-9.84981 6.08926,-15.92917 5.15841,-3.95998 19.1727,-17.732746 19.1727,-18.842258 0,-0.465524 -3.203,0.170734 -7.11778,1.413909 -9.63712,3.060351 -21.33975,5.003184 -31.14246,5.170164 -6.66948,0.113608 -8.52847,-0.178695 -10.33199,-1.624573 -1.20957,-0.969708 -5.72692,-4.639197 -10.03855,-8.15442 -8.94622,-7.293729 -21.37041,-13.778609 -32.36001,-16.890493 -10.87689,-3.079968 -34.2172,-3.136059 -45.25967,-0.108768 -15.40576,4.223486 -27.53206,11.236399 -39.44662,22.812883 -11.94359,11.604676 -19.94729,25.309496 -24.29161,41.594746 -2.60341,9.75922 -3.08426,31.1508 -0.94711,42.13361 1.52487,7.83625 0.65703,11.31199 -3.53525,14.1588 -2.16207,1.46819 -4.52459,1.68464 -17.5842,1.6111 -16.75752,-0.0944 -29.42227,-1.75344 -47.04479,-6.16279 C 149.97615,172.17676 101.41279,143.46851 60.506785,104.1615 51.243945,95.260734 48.216467,92.849472 47.585571,93.870282 c -0.453172,0.733246 -1.79821,4.734498 -2.988973,8.891668 -1.869586,6.52706 -2.156828,9.6172 -2.104963,22.64505 0.05414,13.59878 0.310328,15.90335 2.597868,23.36915 5.336152,17.4155 14.508158,32.80154 28.416025,47.66787 7.545252,8.06523 8.056166,8.87013 8.056166,12.69179 0,3.32476 -0.536183,4.59331 -2.895264,6.84984 -2.827053,2.70417 -3.121388,2.76789 -12.493554,2.70466 -7.384052,-0.0498 -10.983183,-0.55011 -15.601533,-2.16865 -3.301783,-1.15713 -6.2469,-1.86022 -6.544706,-1.56242 -1.176775,1.17678 4.005476,18.92827 7.791245,26.68846 6.289991,12.8934 13.813166,22.01165 25.084901,30.40342 8.094167,6.02609 19.301253,11.72301 28.783597,14.63163 10.94132,3.35613 14.49871,8.03624 11.27393,14.83196 -2.53706,5.34646 -10.07795,8.16625 -23.847971,8.91756 -6.601887,0.36021 -9.664825,0.88631 -9.664825,1.66009 0,1.4447 6.768585,11.94109 11.210179,17.38419 11.814097,14.47801 36.019907,26.56218 56.207867,28.06042 8.74658,0.64914 12.13466,2.06978 14.12768,5.92388 3.44433,6.66059 0.13011,12.58427 -13.29609,23.76476 -23.93256,19.92954 -53.434572,31.45747 -89.242989,34.87176 -6.619642,0.63119 -11.711354,1.46904 -11.314917,1.8619 1.516849,1.50319 22.872421,9.55379 33.655493,12.68742 13.453612,3.9097 32.010573,7.45042 46.276763,8.82973 5.70073,0.55116 11.85005,1.17476 13.66515,1.38576 7.55582,0.87834 49.2683,-0.38462 60.81768,-1.84144 z"
   id="path1010" /></svg>
