<?xml version="1.0" encoding="UTF-8" standalone="no"?>
<!-- Generator: Adobe Illustrator 18.0.0, SVG Export Plug-In . SVG Version: 6.00 Build 0)  -->

<svg
   version="1.1"
   id="Capa_1"
   x="0px"
   y="0px"
   viewBox="0 0 455.731 455.731"
   style="enable-background:new 0 0 455.731 455.731;"
   xml:space="preserve"
   sodipodi:docname="youtube.svg"
   inkscape:version="1.1.2 (b8e25be833, 2022-02-05)"
   xmlns:inkscape="http://www.inkscape.org/namespaces/inkscape"
   xmlns:sodipodi="http://sodipodi.sourceforge.net/DTD/sodipodi-0.dtd"
   xmlns="http://www.w3.org/2000/svg"
   xmlns:svg="http://www.w3.org/2000/svg"><defs
   id="defs49" /><sodipodi:namedview
   id="namedview47"
   pagecolor="#ffffff"
   bordercolor="#cccccc"
   borderopacity="1"
   inkscape:pageshadow="0"
   inkscape:pageopacity="1"
   inkscape:pagecheckerboard="0"
   showgrid="false"
   inkscape:zoom="1.1914924"
   inkscape:cx="227.44585"
   inkscape:cy="225.76728"
   inkscape:window-width="1366"
   inkscape:window-height="705"
   inkscape:window-x="-8"
   inkscape:window-y="-8"
   inkscape:window-maximized="1"
   inkscape:current-layer="Capa_1" />
<g
   id="g14">
	<path
   d="M200.399,337.104c0,0.56,0,1.26-0.31,1.65c-2.1,2.71-4.6,4.97-7.88,6.17c-2.85,1.04-5.12-0.23-5.72-3.19   c-0.24-1.17-0.25-2.4-0.25-3.6c-0.01-22.05-0.07-67.26-0.1-67.81h-16.27c0,0.61-0.02,63.59,0.02,75.49   c0.01,3.22,0.35,6.42,1.69,9.41c1.44,3.24,3.83,5.29,7.39,5.88c2.61,0.45,5.16,0.16,7.64-0.69c5.08-1.75,9.06-5.05,12.57-9.01   c0.31-0.35,0.64-0.69,1.23-1.32v9.88h16.31v-43.23c0-14.98,0-46.55,0-46.55l-16.32,0.04V337.104z"
   id="path2" />
	<path
   d="M277.509,277.334c-3.44-7.33-10.67-9.27-16.94-7.7c-3.8,0.96-6.88,3.15-9.41,5.98c-0.84,0.95-1.76,2.79-1.76,2.79   s0-27.07,0-40.01h-16.34v121.55h16.34v-6.82c0,0,1.16,1.23,1.58,1.68c3.75,4.07,8.3,6.3,13.91,6.35c6.9,0.07,11.7-3.27,13.88-9.83   c1.01-3.05,1.34-6.19,1.35-9.37c0.02-16.99,0.02-33.98-0.01-50.97C280.109,286.284,279.539,281.665,277.509,277.334z    M263.289,339.925c0,0.91-0.11,1.83-0.3,2.72c-0.75,3.56-3.46,5.16-7.3,4.37c-2.33-0.48-4.15-1.82-5.71-3.51   c-0.07-0.08-0.53-0.7-0.53-0.7v-1.33l-0.04-53.97c0,0,0.35-1,1.12-1.67c1.92-1.7,4.04-2.77,6.69-2.51c2.26,0.22,4.06,1.26,4.9,3.35   c0.63,1.59,1.13,3.36,1.14,5.06C263.339,307.794,263.309,323.854,263.289,339.925z"
   id="path4" />
	<path
   d="M218.753,171.39c3.81,0,6.909-3.099,6.909-6.909v-48.751c0-3.81-3.1-6.909-6.909-6.909s-6.909,3.1-6.909,6.909v48.751   C211.843,168.29,214.943,171.39,218.753,171.39z"
   id="path6" />
	<polygon
   points="169.909,238.405 113.309,238.405 113.309,255.824 132.379,255.824 132.379,359.955 150.799,359.955    150.799,255.784 169.909,255.784  "
   id="polygon8" />
	<path
   d="M324.189,328.084v11.53c0,4.03-3.26,7.29-7.28,7.29c-4.03,0-7.29-3.26-7.29-7.29v-22.43h31.29c0,0,0.18-15.65,0.05-22.75   c-0.05-3.03-0.28-6.1-0.9-9.06c-1.62-7.68-5.75-13.47-13.48-16.01c-2.27-0.75-4.71-1.14-7.1-1.29c-7.95-0.51-14.91,1.76-20.35,7.85   c-4.77,5.33-6.43,11.75-6.44,18.71c-0.03,13.31-0.09,26.63,0.04,39.94c0.04,3.39,0.42,6.85,1.19,10.15   c1.66,7.09,5.53,12.66,12.36,15.74c4.99,2.26,10.26,2.37,15.58,1.59c8.58-1.26,14.43-5.86,17.26-14.15   c2.13-6.21,1.88-19.82,1.88-19.82H324.189z M309.619,290.685c0-4.02,3.26-7.29,7.29-7.29c4.02,0,7.28,3.27,7.28,7.29v12.59h-14.57   V290.685z"
   id="path10" />
	<path
   d="M0,0v455.731h455.731V0H0z M256.735,94.99h16.596v68.821c0,0.912,0.073,1.834,0.233,2.728   c0.503,2.836,2.6,4.171,5.331,3.224c3.329-1.152,5.87-3.457,8.024-6.173c0.306-0.388,0.25-1.112,0.25-1.681V94.99h16.717   l-0.005,90.244H287.16l0.02-9.695c-1.849,1.821-3.427,3.522-5.161,5.05c-3.074,2.708-6.556,4.727-10.629,5.524   c-6.253,1.222-11.579-0.754-13.573-7.23c-0.664-2.157-1.065-4.482-1.082-6.734V94.99z M218.753,92.731L218.753,92.731   c13.224,0,23.944,10.72,23.944,23.944v46.859c0,13.224-10.72,23.944-23.944,23.944l0,0c-13.224,0-23.944-10.72-23.944-23.944   v-46.859C194.808,103.451,205.528,92.731,218.753,92.731z M154.343,63.07c0,0,7.605,32.301,11.235,47.602h0.006   c3.63-15.301,11.235-47.602,11.235-47.602h19.029c0,0-14.62,48.487-21.158,70.111c-0.236,0.781-0.343,1.631-0.343,2.45   l0.008,49.584h-17.547l0.007-49.584c0-0.819-0.108-1.668-0.343-2.45c-6.538-21.624-21.158-70.111-21.158-70.111H154.343z    M363.579,350.865c0,22.18-17.72,40.3-39.89,40.77c-63.87,1.37-127.77,1.37-191.65,0c-22.16-0.47-39.88-18.59-39.88-40.77v-99.76   c0-22.17,17.72-40.29,39.88-40.76c63.88-1.37,127.78-1.37,191.65,0c22.17,0.47,39.89,18.59,39.89,40.76V350.865z"
   id="path12" />
</g>
<g
   id="g16">
</g>
<g
   id="g18">
</g>
<g
   id="g20">
</g>
<g
   id="g22">
</g>
<g
   id="g24">
</g>
<g
   id="g26">
</g>
<g
   id="g28">
</g>
<g
   id="g30">
</g>
<g
   id="g32">
</g>
<g
   id="g34">
</g>
<g
   id="g36">
</g>
<g
   id="g38">
</g>
<g
   id="g40">
</g>
<g
   id="g42">
</g>
<g
   id="g44">
</g>
<path
   style="fill:#ffffff;fill-opacity:0.986737;stroke-width:0.839284"
   d="M 157.36567,159.75823 V 134.45442 L 146.87463,99.758671 c -5.77008,-19.082663 -10.49105,-35.077578 -10.49105,-35.544256 0,-0.517595 3.41473,-0.848504 8.75592,-0.848504 7.62149,0 8.80965,0.190293 9.17057,1.468746 0.22806,0.807811 2.77713,11.565855 5.6646,23.906766 2.88747,12.340907 5.46449,22.225247 5.72671,21.965187 0.26223,-0.26005 2.93617,-10.923676 5.9421,-23.69694 l 5.46533,-23.224117 9.0781,-0.238883 c 8.38527,-0.220652 9.04276,-0.124573 8.61526,1.258925 -0.25456,0.823795 -5.00513,16.568321 -10.55683,34.987835 l -10.094,33.49003 v 25.88928 25.88929 h -8.39283 -8.39284 z"
   id="path903" /><path
   style="fill:#ffffff;fill-opacity:0.986737;stroke-width:0.839284"
   d="m 210.86205,185.541 c -5.43995,-1.94119 -10.04518,-6.09928 -13.07921,-11.8093 l -2.22976,-4.19642 -0.25262,-27.54417 c -0.29383,-32.03793 -0.0237,-33.83844 6.09855,-40.64785 10.33343,-11.493266 28.16339,-10.300327 36.7317,2.45759 3.88004,5.77723 4.10289,8.00226 3.83411,38.28124 -0.24117,27.16873 -0.32333,28.42582 -2.06842,31.64961 -2.44538,4.51748 -7.4351,9.18995 -12.03091,11.26597 -4.42861,2.00051 -12.22198,2.24954 -17.00344,0.54333 z m 12.04047,-14.9833 c 3.08407,-2.36788 3.28441,-4.22115 3.28441,-30.38384 0,-30.75829 -0.18264,-31.48664 -7.89554,-31.48664 -1.84156,0 -3.38096,0.70085 -4.75724,2.16583 l -2.03469,2.16582 v 27.14149 27.14148 l 2.03469,2.16583 c 2.24091,2.38534 6.96532,2.93503 9.36837,1.09003 z"
   id="path979" /><path
   style="fill:#ffffff;fill-opacity:0.986737;stroke-width:0.839284"
   d="m 262.91613,184.64072 c -1.26361,-0.71489 -2.96316,-2.51768 -3.77677,-4.0062 -1.34632,-2.46312 -1.50086,-6.42203 -1.71915,-44.04112 l -0.23985,-41.334713 h 8.00322 8.00323 v 36.489493 36.48948 l 1.98492,1.30057 c 2.50956,1.64433 5.65536,0.60512 9.55523,-3.15655 l 2.72767,-2.63102 V 129.50467 95.258687 h 7.97319 7.9732 v 44.901673 44.90167 h -7.9732 -7.97319 v -5.11348 -5.11347 l -4.35365,3.9143 c -2.39451,2.15288 -5.45843,4.48561 -6.80871,5.18387 -3.67569,1.90077 -10.61791,2.26795 -13.37614,0.70747 z"
   id="path1018" /><path
   style="fill:#ffffff;fill-opacity:0.986737;stroke-width:0.839284"
   d="m 151.07105,391.55509 c -16.22603,-0.40152 -26.37218,-0.99916 -28.53565,-1.68085 -14.21916,-4.48028 -24.96744,-15.41844 -28.508018,-29.01164 -1.933757,-7.42419 -1.919717,-112.58794 0.01602,-120.0217 3.399938,-13.05667 13.904248,-23.96895 27.107238,-28.16004 5.28864,-1.6788 8.23168,-1.81323 56.14802,-2.56462 31.7419,-0.49776 69.39176,-0.49776 101.13367,0 47.91634,0.75139 50.85938,0.88582 56.14801,2.56462 13.27582,4.21421 23.68856,15.03136 27.10724,28.16004 1.93574,7.43376 1.94978,112.59751 0.016,120.0217 -3.98516,15.30009 -17.25181,27.23715 -33.12408,29.80435 -6.77738,1.09619 -141.80017,1.77176 -177.50848,0.88814 z m 177.79971,-31.33568 c 8.19082,-3.74989 11.46078,-10.08763 12.1026,-23.45687 l 0.43313,-9.0223 h -8.93134 -8.93133 v 7.17206 c 0,6.49573 -0.19426,7.36632 -2.06006,9.23212 -1.29857,1.29857 -3.01897,2.06006 -4.65421,2.06006 -1.63523,0 -3.35564,-0.76149 -4.6542,-2.06006 -1.99839,-1.99839 -2.06006,-2.42554 -2.06006,-14.26783 v -12.20775 h 15.52674 15.52675 v -14.84223 c 0,-18.67378 -1.05193,-23.21811 -6.6766,-28.84278 -4.32236,-4.32236 -9.3044,-6.16397 -16.82334,-6.21874 -9.95034,-0.0725 -17.92787,4.64205 -22.49056,13.29139 l -2.26831,4.29994 v 29.79457 c 0,29.33839 0.0297,29.8602 1.94026,34.08112 2.57071,5.67942 7.39131,10.24656 12.89219,12.21436 6.01723,2.15249 14.86935,1.63839 21.12834,-1.22706 z m -139.21414,-0.576 c 1.89531,-0.9175 5.03596,-3.24241 6.97926,-5.16646 l 3.53326,-3.49829 v 4.74682 4.74682 h 8.39283 8.39284 v -45.32131 -45.32132 h -8.39284 -8.39283 v 34.25361 34.2536 l -2.30803,2.15268 c -4.57141,4.26373 -8.73654,5.24407 -10.2517,2.41296 -0.55986,-1.04611 -0.86881,-14.32716 -0.86881,-37.34812 v -35.72473 h -8.85658 -8.85658 l 0.25392,40.91508 c 0.27792,44.78131 0.27968,44.7975 5.30111,48.74735 3.07538,2.4191 10.24094,2.49103 15.07415,0.15131 z m 84.13282,-0.49958 c 1.28417,-0.93295 3.27905,-3.56502 4.43307,-5.84906 l 2.09821,-4.1528 v -32.73206 c 0,-35.15458 -0.14631,-36.55644 -4.41093,-42.26305 -1.15774,-1.5492 -3.36493,-3.34317 -4.90487,-3.9866 -6.25434,-2.61323 -15.76714,-0.44679 -19.63622,4.47195 l -1.68183,2.1381 V 257.3536 237.9369 h -8.39284 -8.39283 v 61.2677 61.2677 h 8.39283 8.39284 v -3.0121 -3.0121 l 2.72767,2.29896 c 4.37611,3.6883 7.22714,4.61171 13.4017,4.3406 4.03619,-0.17721 6.3018,-0.72955 7.9732,-1.94383 z M 151.49069,308.43672 v -52.03558 h 9.23212 9.23212 v -9.23212 -9.23212 h -28.53565 -28.53564 v 9.23212 9.23212 h 9.65176 9.65176 v 52.03558 52.03558 h 9.65177 9.65176 z"
   id="path1057" /><path
   style="fill:#ffffff;fill-opacity:0.986737;stroke-width:0.839284"
   d="m 254.73983,346.10709 c -5.24872,-2.09417 -5.05296,-0.89113 -5.05296,-31.05349 0,-27.24353 0.0194,-27.55161 1.83682,-29.24484 2.81354,-2.62122 7.7878,-2.33393 9.68398,0.55929 1.3484,2.0574 1.48809,4.86129 1.48809,29.86838 v 27.59783 l -1.98136,1.60475 c -2.20624,1.78688 -2.9594,1.8711 -5.97457,0.66808 z"
   id="path1164" /><path
   style="fill:#ffffff;fill-opacity:0.986737;stroke-width:0.839284"
   d="m 310.11529,295.38967 c 0,-6.49573 0.19426,-7.36632 2.06006,-9.23212 2.72544,-2.72544 6.58297,-2.72544 9.30841,0 1.8658,1.8658 2.06006,2.73639 2.06006,9.23212 v 7.17206 h -6.71427 -6.71426 z"
   id="path1233" /></svg>
